<svg width="43" height="51" viewBox="0 0 43 51" fill="none" xmlns="http://www.w3.org/2000/svg">
<path d="M32.194 9.1599C29.7081 7.59219 27.3229 6.9763 24.949 5.40859C23.4932 4.42318 21.444 2.04922 19.7419 0C19.4396 3.28099 18.4542 4.61354 17.2784 5.54297C14.8932 7.44661 13.3815 8.02891 11.2875 9.1599C9.51823 10.0893 0 16.6401 0 28.8458C0 41.074 10.2797 50.0659 21.7016 50.0659C33.0898 50.0659 43 41.7794 43 29.2378C43 16.6625 33.7057 10.0893 32.194 9.1599ZM32.474 45.6203C30.2232 47.8711 22.3846 48.8341 19.406 46.0906C18.8685 45.5531 19.4396 44.7469 20.1339 44.7469C20.1339 44.7469 22.0375 46.2362 25.9008 46.2362C28.9242 46.2362 31.0518 45.374 32.0036 44.6685C32.6867 44.1534 32.9443 45.15 32.474 45.6203ZM26.3711 39.7302C27.3453 39.3271 29.6185 39.3047 30.4919 39.8758C30.951 40.1893 32.2948 41.981 31.1862 42.5297C30.2456 43 31.0518 40.7716 28.2188 40.7716C26.5727 40.7716 26.0352 41.3539 25.2289 42.0034C24.445 42.6753 24.1315 42.8992 23.8628 42.5297C23.1909 41.6115 25.6432 40.0326 26.3711 39.7302ZM36.7292 41.6674C35.0271 41.5555 31.6341 36.2029 29.4505 36.1245C25.9904 36.0237 17.7935 45.1612 11.3883 40.8276C7.04349 37.849 9.75338 29.0922 17.1888 29.0474C22.7318 28.9914 26.5727 34.5344 29.3385 34.4784C31.7237 34.4448 36.2589 29.7977 38.4984 29.7977C43.9518 29.7977 41.1076 42.037 36.7292 41.6674Z" fill="#989898"/>
</svg>
