<svg width="45" height="50" viewBox="0 0 45 50" fill="none" xmlns="http://www.w3.org/2000/svg">
<path d="M0 0L4.09526 45L22.4729 50L40.8984 44.9937L45 0H0.0031896H0ZM37.3868 42.1313L22.575 46.1531V46.175L22.5367 46.1625L22.4984 46.175V46.1531L7.68658 42.1313L4.18456 3.68125H40.8888L37.3868 42.1313ZM29.4131 25.8875L28.7625 33.0438L22.4729 34.7062L16.1992 33.05L15.7974 28.6438H10.1425L10.9303 37.3125L22.4952 40.4469L34.0251 37.3125L35.572 20.3687H15.0415L14.528 14.7156H36.0823L36.5862 9.19688H8.36913L9.8905 25.8875H29.4131Z" fill="#989898"/>
</svg>
